<svg xmlns="http://www.w3.org/2000/svg" xmlns:xlink="http://www.w3.org/1999/xlink" width="793" height="140" version="1.1" viewBox="0 0 793 140"><title>Group 5</title><desc>Created with Sketch.</desc><defs><rect id="path-1" width="80" height="64" x="0" y="0" rx="2"/><rect id="path-3" width="80" height="64" x="0" y="0" rx="2"/><rect id="path-5" width="80" height="64" x="0" y="0" rx="2"/><rect id="path-7" width="80" height="64" x="0" y="0" rx="2"/></defs><g id="Lock-and-Feeling" fill="none" fill-rule="evenodd" stroke="none" stroke-width="1"><g id="UI_Tutorial-Step-byt-Step" transform="translate(-401.000000, -1884.000000)"><g id="Group-5" transform="translate(400.000000, 1878.000000)"><text id="Countdown" fill="#34E27A" font-family="Helvetica-Bold, Helvetica" font-size="14" font-weight="bold" letter-spacing="1" line-spacing="24"><tspan x="35" y="17">15s</tspan></text><g id="browser" fill="#FFF" font-family="FaktPro-Medium, Fakt Pro, sans-serif" font-size="13" font-weight="normal"><text transform="translate(375.000000, 110.000000)"><tspan x="0" y="14">browser</tspan></text></g><g id="relying-party" fill="#FFF" font-family="FaktPro-Medium, Fakt Pro, sans-serif" font-size="13" font-weight="normal"><text text-anchor="end" transform="translate(785.000000, 110.000000)"><tspan x="0" y="14">relying party</tspan> <tspan x="0" y="34">https://myapp.com</tspan></text></g><g id="authenticator" fill="#FFF" font-family="FaktPro-Medium, Fakt Pro, sans-serif" font-size="13" font-weight="normal"><text transform="translate(0.000000, 110.000000)"><tspan x="0" y="14">authenticator</tspan></text></g><g id="Browser" transform="translate(361.000000, 37.000000)"><g id="Mask" fill="#2F2F2F" fill-rule="nonzero"><rect id="path-1" width="80" height="64" x="0" y="0" rx="2"/></g><g id="Clipped"><mask id="mask-2" fill="#fff"><use xlink:href="#path-1"/></mask><rect id="Rectangle-path" width="80" height="10" x="0" y="0" fill="#515151" fill-rule="nonzero" mask="url(#mask-2)"/></g><g id="Oval-3-Clipped"><mask id="mask-4" fill="#fff"><use xlink:href="#path-3"/></mask><circle id="Oval-3" cx="5" cy="5" r="2" fill="#000" fill-rule="nonzero" mask="url(#mask-4)"/></g><g id="Oval-3-Clipped"><mask id="mask-6" fill="#fff"><use xlink:href="#path-5"/></mask><circle id="Oval-3" cx="11" cy="5" r="2" fill="#000" fill-rule="nonzero" mask="url(#mask-6)"/></g><g id="Oval-3-Clipped"><mask id="mask-8" fill="#fff"><use xlink:href="#path-7"/></mask><circle id="Oval-3" cx="17" cy="5" r="2" fill="#000" fill-rule="nonzero" mask="url(#mask-8)"/></g></g><path id="Line-Left" stroke="#4C4C4C" stroke-linecap="square" d="M122,69 L338.5,69"/><path id="Line-Right" stroke="#4C4C4C" stroke-linecap="square" d="M459,68.25 L675.5,68.25"/><g id="YubiKey" transform="translate(4.000000, 48.000000)"><g id="Group"><rect id="Rectangle-6" width="78" height="41" x="0" y="0" fill="#515151" fill-rule="nonzero" rx="2"/><path id="Rectangle-5" fill="#2F2F2F" fill-rule="nonzero" d="M78,8 L96,8 C97.1045695,8 98,8.8954305 98,10 L98,31 C98,32.1045695 97.1045695,33 96,33 L78,33 L78,8 Z"/><path id="Line-2" stroke="#000" stroke-linecap="square" d="M78.5,14.5 L94.5,14.5"/><path id="Line-2" stroke="#000" stroke-linecap="square" d="M78.5,26.5 L94.5,26.5"/><path id="Line-2" stroke="#000" stroke-linecap="square" d="M78.3235294,18.5 L88.6764706,18.5"/><path id="Line-2" stroke="#000" stroke-linecap="square" d="M78.3235294,22.5 L88.6764706,22.5"/><circle id="Oval-4" cx="39" cy="21" r="13" stroke="#000"/></g></g><g id="Relying-Party" fill-rule="nonzero" transform="translate(701.000000, 39.000000)"><rect id="Rectangle-8" width="85" height="12" x="0" y="48" fill="#515151" rx="2"/><rect id="Rectangle-8" width="85" height="12" x="0" y="32" fill="#515151" rx="2"/><rect id="Rectangle-8" width="85" height="12" x="0" y="16" fill="#515151" rx="2"/><rect id="Rectangle-8" width="85" height="12" x="0" y="0" fill="#515151" rx="2"/><circle id="Oval-6" cx="79" cy="6" r="2" fill="#000"/><circle id="Oval-6" cx="79" cy="22" r="2" fill="#000"/><circle id="Oval-6" cx="79" cy="38" r="2" fill="#000"/><circle id="Oval-6" cx="79" cy="54" r="2" fill="#000"/></g><g id="Check" transform="translate(388.000000, 61.000000)"><circle id="Oval-7" cx="13" cy="13" r="13" fill="#34E27A" fill-rule="nonzero"/><polyline id="Path-2" stroke="#000" stroke-width="2" points="7 12.556 11.6 17 20 9"/></g><circle id="Data-Dot" cx="121.5" cy="69.5" r="2.5" fill="#FFF" fill-rule="nonzero"/><g id="Text-Right" fill="#FFF" font-family="FaktPro-Medium, Fakt Pro, sans-serif" font-size="14" font-weight="400"><text text-anchor="middle" transform="translate(565.000000, 87.000000)"><tspan id="Text-Right-1" x="0" y="10">CHALLENGE</tspan> <tspan id="Text-Right-2" x="0" y="30">CHALLENGE</tspan> <tspan id="Text-Right-3" x="0" y="50">CHALLENGE</tspan></text></g><g id="Text-Left" fill="#FFF" font-family="FaktPro-Medium, Fakt Pro, sans-serif" font-size="14" font-weight="400"><text text-anchor="middle" transform="translate(225.000000, 87.000000)"><tspan id="Text-Left-1" x="0" y="10">CHALLENGE</tspan> <tspan id="Text-Left-2" x="0" y="30">CHALLENGE</tspan> <tspan id="Text-Left-3" x="0" y="50">CHALLENGE</tspan></text></g><g id="Touch-Circles" fill-rule="nonzero" stroke="#34E27A" stroke-width="2" transform="translate(14.000000, 40.000000)"><circle id="Oval-7" cx="29" cy="29" r="13"/><circle id="Oval-7" cx="29" cy="29" r="19" opacity=".5"/><circle id="Oval-7" cx="29" cy="29" r="24" opacity=".4"/><circle id="Oval-7" cx="29" cy="29" r="29" opacity=".2"/></g></g></g></g></svg>