<svg xmlns="http://www.w3.org/2000/svg" xmlns:xlink="http://www.w3.org/1999/xlink" width="18" height="20" version="1.1" viewBox="0 0 18 20"><title>Logo</title><desc>Created with Sketch.</desc><g id="Lock-and-Feeling" fill="none" fill-rule="evenodd" stroke="none" stroke-width="1"><g id="UI_Tutorial-Step-byt-Step" fill="#E95424" transform="translate(-193.000000, -8720.000000)"><path id="Logo" d="M207.290335,8736.17954 L205.270168,8729.9997 L210.558331,8726.18139 L204.021621,8726.18139 L202.001334,8720.00179 L202.000734,8720.00012 L208.538403,8720.00012 L210.55917,8726.18079 L210.55929,8726.18067 L210.560968,8726.17972 C211.734463,8729.76532 210.52584,8733.84351 207.290335,8736.17954 L207.290335,8736.17954 L207.290335,8736.17954 Z M196.711853,8736.17954 L196.710174,8736.18073 L201.999655,8740 L207.290335,8736.17966 L202.001334,8732.36028 L196.711853,8736.17954 L196.711853,8736.17954 L196.711853,8736.17954 Z M193.442539,8726.17984 L193.442539,8726.17984 C192.20718,8729.95955 193.641199,8733.96458 196.710774,8736.18026 L196.711253,8736.17835 L198.73166,8729.99887 L193.444697,8726.18127 L199.979848,8726.18127 L202.000255,8720.00167 L202.000734,8720 L195.462706,8720 L193.442539,8726.17984 L193.442539,8726.17984 L193.442539,8726.17984 Z"/></g></g></svg>