<svg xmlns="http://www.w3.org/2000/svg" xmlns:xlink="http://www.w3.org/1999/xlink" width="9" height="16" version="1.1" viewBox="0 0 9 16"><title>Shape</title><desc>Created with Sketch.</desc><defs><rect id="path-1" width="1440" height="227" x="0" y="0"/><filter id="filter-2" width="100.5%" height="103.1%" x="-.2%" y="-1.5%" filterUnits="objectBoundingBox"><feGaussianBlur in="SourceAlpha" result="shadowBlurInner1" stdDeviation="1.5"/><feOffset dx="0" dy="-4" in="shadowBlurInner1" result="shadowOffsetInner1"/><feComposite in="shadowOffsetInner1" in2="SourceAlpha" k2="-1" k3="1" operator="arithmetic" result="shadowInnerInner1"/><feColorMatrix in="shadowInnerInner1" type="matrix" values="0 0 0 0 0 0 0 0 0 0 0 0 0 0 0 0 0 0 0.5 0"/></filter></defs><g id="Page-1" fill="none" fill-rule="evenodd" stroke="none" stroke-width="1"><g id="UI_Auth0_Banner" transform="translate(-1295.000000, -2289.000000)"><g id="Footer" transform="translate(0.000000, 2183.000000)"><g id="Group-13" transform="translate(1280.000000, 94.000000)"><path id="Shape" fill="#FFF" d="M15.4292889,20.6153846 L17.8280222,20.6153846 L17.8280222,27.9076923 L20.8378667,27.9076923 L20.8378667,20.6153846 L23.8477111,20.6153846 L23.8477111,17.6 L20.8378667,17.6 L20.8378667,16.0615385 C20.8378667,15.7998769 20.8989778,15.6 21.0212,15.4153846 C21.1588222,15.2460308 21.2962,15.1692308 21.4489778,15.1692308 L23.8477111,15.1692308 L23.8477111,12.1538462 L21.4489778,12.1538462 C20.4406444,12.1538462 19.6002444,12.5385846 18.8974667,13.3078154 C18.1792889,14.0770462 17.8280222,15.0001231 17.8280222,16.0925538 L17.8280222,17.6002462 L15.4292889,17.6002462 L15.4292889,20.6156308 L15.4292889,20.6153846 Z"/></g></g></g></g></svg>